<svg width="16" height="16" viewBox="0 0 16 16" version="1.1" xmlns="http://www.w3.org/2000/svg" xmlns:xlink="http://www.w3.org/1999/xlink">
<title>Group</title>
<desc>Created using Figma</desc>
<g id="Canvas" transform="translate(-427 611)">
<g id="Group">
<g id="Question">
<g id="Group">
<g id="Ellipse">
<use xlink:href="#path0_fill" transform="translate(427 -611)" fill="#F5B407"/>
</g>
<g id="?">
<use xlink:href="#path1_fill" transform="translate(432 -612)" fill="#FFFFFF"/>
</g>
</g>
</g>
</g>
</g>
<defs>
<path id="path0_fill" d="M 16 8C 16 12.4183 12.4183 16 8 16C 3.58172 16 0 12.4183 0 8C 0 3.58172 3.58172 0 8 0C 12.4183 0 16 3.58172 16 8Z"/>
<path id="path1_fill" d="M 0.294 5.362C 0.294 4.97 0.527333 4.59667 0.994 4.242C 1.46067 3.88733 2.086 3.71 2.87 3.71C 3.74733 3.71 4.44733 3.934 4.97 4.382C 5.49267 4.83 5.754 5.39467 5.754 6.076C 5.754 6.30933 5.71667 6.538 5.642 6.762C 5.57667 6.986 5.502 7.17733 5.418 7.336C 5.34333 7.48533 5.22667 7.658 5.068 7.854C 4.91867 8.04067 4.80667 8.17133 4.732 8.246L 4.368 8.596L 4.102 8.82C 3.78467 9.072 3.58867 9.324 3.514 9.576C 3.43933 9.828 3.402 10.192 3.402 10.668C 3.402 11.004 3.16867 11.172 2.702 11.172C 2.46867 11.172 2.30067 11.116 2.198 11.004C 2.10467 10.892 2.058 10.6867 2.058 10.388C 2.058 9.41733 2.338 8.68 2.898 8.176L 3.304 7.84C 3.51867 7.65333 3.67733 7.50867 3.78 7.406C 3.892 7.294 3.99933 7.13533 4.102 6.93C 4.214 6.71533 4.27 6.496 4.27 6.272C 4.27 5.88933 4.13933 5.59533 3.878 5.39C 3.61667 5.17533 3.26667 5.068 2.828 5.068C 2.52 5.068 2.26333 5.11933 2.058 5.222C 1.85267 5.32467 1.71267 5.43667 1.638 5.558C 1.56333 5.67 1.47 5.77733 1.358 5.88C 1.25533 5.98267 1.134 6.034 0.994 6.034C 0.816667 6.034 0.653333 5.978 0.504 5.866C 0.364 5.74467 0.294 5.57667 0.294 5.362ZM 1.778 13.132C 1.778 12.8707 1.86667 12.6467 2.044 12.46C 2.23067 12.2733 2.45467 12.18 2.716 12.18C 2.97733 12.18 3.20133 12.2733 3.388 12.46C 3.57467 12.6467 3.668 12.8707 3.668 13.132C 3.668 13.384 3.57467 13.608 3.388 13.804C 3.20133 13.9907 2.97733 14.084 2.716 14.084C 2.45467 14.084 2.23067 13.9907 2.044 13.804C 1.86667 13.608 1.778 13.384 1.778 13.132Z"/>
</defs>
</svg>
