<svg width="35" height="35" viewBox="0 0 35 35" version="1.1" xmlns="http://www.w3.org/2000/svg" xmlns:xlink="http://www.w3.org/1999/xlink">
<title>Rectangle 3</title>
<desc>Created using Figma</desc>
<g id="Canvas" transform="translate(1577 436)">
<g id="Rectangle 3">
<use xlink:href="#path0_fill" transform="translate(-1577 -436)" fill="#FFFFFF"/>
<mask id="mask0_outline_ins">
<use xlink:href="#path0_fill" fill="white" transform="translate(-1577 -436)"/>
</mask>
<g mask="url(#mask0_outline_ins)">
<use xlink:href="#path1_stroke_2x" transform="translate(-1577 -436)" fill="#4C4C4C"/>
</g>
</g>
</g>
<defs>
<path id="path0_fill" d="M 0 2C 0 0.89543 0.895431 0 2 0L 33 0C 34.1046 0 35 0.895431 35 2L 35 33C 35 34.1046 34.1046 35 33 35L 2 35C 0.89543 35 0 34.1046 0 33L 0 2Z"/>
<path id="path1_stroke_2x" d="M 2 1L 33 1L 33 -1L 2 -1L 2 1ZM 34 2L 34 33L 36 33L 36 2L 34 2ZM 33 34L 2 34L 2 36L 33 36L 33 34ZM 1 33L 1 2L -1 2L -1 33L 1 33ZM 2 34C 1.44772 34 1 33.5523 1 33L -1 33C -1 34.6569 0.343146 36 2 36L 2 34ZM 34 33C 34 33.5523 33.5523 34 33 34L 33 36C 34.6569 36 36 34.6569 36 33L 34 33ZM 33 1C 33.5523 1 34 1.44772 34 2L 36 2C 36 0.343146 34.6569 -1 33 -1L 33 1ZM 2 -1C 0.343146 -1 -1 0.343146 -1 2L 1 2C 1 1.44772 1.44772 1 2 1L 2 -1Z"/>
</defs>
</svg>
